<?xml version="1.0" encoding="utf-8"?>
<svg version="1.1" id="Layer_1" xmlns="http://www.w3.org/2000/svg" xmlns:xlink="http://www.w3.org/1999/xlink" x="0px" y="0px"
		 viewBox="94 172 800 450" style="enable-background:new 94 172 800 450;" xml:space="preserve">
	<style type="text/css">
		.st0{
			fill:none;
			stroke:#fff;
			stroke-width:48;
			stroke-miterlimit:10;
			stroke-dasharray: 2420;
			stroke-dashoffset: 2420;
			animation: dash 5s linear forwards;
			animation-delay: 0.5s; 
		}
		.st1{
			fill:#db5d57;
		}
		#heartGroup {
			animation: beat 1s linear; 
			animation-delay: 6s; 
			animation-iteration-count: infinite;
			transform-origin: 55% 60%;
		}
		@keyframes dash {
		  to {
			stroke-dashoffset: 0;
		  }
		}
		@keyframes beat {
		  0% {
				transform: scale(1);
		  }
		  15% {
				transform: scale(1.04);
		  }
		  25% {
				transform: scale(1.1);
		  }
		  50% {
				transform: scale(1);
		  }
		  75% {
				transform: scale(1.05);
		  }
		}
	</style>
	<g id="heartGroup">
		<mask id="heartMask">
			<path class="st0" 
			stroke-linecap="round" d="M480.3,451.4C596.3,313.8,612.5,243.2,647,275c38.5,35.4-107.5,184.4-153,225c-11.3,10.1-34.8-2.2-39.4-2
				c-24.7,0.7-153.5-168.4-124.6-206c30-39,101,106.7,130,111c27.7,4.1,110.4-187.9,182-184c28.8,1.6,70.4,37,67,61
				c-10.5,74.7-178,286-240,286c-34,0-204.1-226.3-200-256c5.2-37.4,26.6-74.8,83-82c44.2-5.6,82,59,119,129"/>
		</mask>
		<path class="st1" mask="url(#heartMask)" d="M627.8,207c-8.3,1-14.8,3.9-27.5,12.3c-19.5,12.9-25.5,19.1-48.6,49.7c-6.5,8.5-13.7,18-16,21c-2.4,3-10.4,14.3-17.7,25
			c-7.4,10.7-18.3,26.7-24.3,35.5c-17.6,25.7-26.3,34.3-33.5,33.1c-8.9-1.4-23.1-16.8-41-44.6c-19.6-30.5-30-44.5-40.1-54.2
			c-11.7-11.3-19.4-15-32.4-15.6c-14.7-0.7-24.7,4.9-34.4,19.5c-4.9,7.4-5.6,9.1-6,14.6c-1.1,13,2.7,23.9,13.9,41
			c17.5,26.5,58.6,83.6,73.2,101.7c12.6,15.7,33.1,38.2,50.3,55.2c20.1,19.9,21.6,20.8,31.4,18.7c11.1-2.3,22.5-9.1,37.9-22.5
			c25.3-22,80.1-79.5,98.5-103.2c14-18.1,42.3-61.4,48-73.7c5.4-11.5,10-29.1,9.1-35.3c-1.9-14-18.2-28.2-32.4-28.2
			c-9.3,0.1-13.1,2.5-28,17.8c-16.3,16.7-26.1,28.7-38.2,46.8c-23.7,35.3-51.1,69.6-82.5,103.4c-10.4,11.2-13,15.5-12,20.1
			c0.8,3.6,6.5,8.6,10.8,9.4c5.9,1.1,9.9-1.6,26-17.7c21.4-21.4,34.3-37.9,73.5-94.3c11.8-16.9,38.8-50.5,43.4-53.8
			c5.4-4,10.2,1.8,8.4,10.4c-0.7,3.5-32.7,51.5-47.2,70.8c-9.2,12.2-14.9,19.1-26.3,31.6c-2,2.2-9.2,10.3-16.1,18
			c-23.9,26.9-59,60.9-71.2,68.9c-2.7,1.7-2.9,1.7-5.5,0.1c-1.4-1-11.2-10.4-21.8-20.9c-20.1-20.1-22.6-23.1-50.3-62.1
			c-9.4-13.2-24.4-33.8-33.5-45.8c-9-12-18.3-25.1-20.6-29.2c-6.7-11.7-6.8-21.8-0.1-26.5c3.6-2.6,10.5-2.6,14.7-0.1
			c6,3.7,14.6,13.7,23.4,27.1c21.1,32.4,31,45.2,54.3,70.3c7.2,7.7,14.1,14.2,16.3,15.3c5.1,2.5,11.8,2.3,17.6-0.5
			c8.1-3.9,27.6-28.3,54.2-67.6c16.9-25,35.3-50.6,46.4-64.5c9.8-12.3,29.4-32,39.6-39.7c11.9-9,15.5-10.5,24.2-10.5
			c6.7,0,8.2,0.4,16.6,4.5c11.5,5.6,16.4,9,23.7,16.1c11.4,11.2,15,23,12.5,40.1c-3.4,22-7.3,32.9-17.5,48.1
			c-7.1,10.5-47.2,64.2-57.8,77.4c-24.4,30.2-62,69.8-84.7,89.2c-24.7,21-55.8,42.8-61.2,42.8c-3.2,0-11.9-7.6-21.8-19
			c-4.8-5.6-18.6-20-30.5-31.9c-24.3-24.1-45-49.2-62.6-75.6c-5.5-8.3-13.3-19.4-17.4-24.9c-15.6-20.6-31.2-45.3-42.7-67.7
			c-10.9-21.2-11.1-35.8-0.7-52.7c6.7-10.8,14.2-17.9,25-23.4c18.5-9.6,31.8-11.9,47.2-8.3c11.3,2.7,26.4,12.6,38.3,25.3
			c12.3,12.9,30.9,39.7,42.3,60.9c4.3,7.8,8.8,14.9,10.1,15.7c5.6,3.7,13.7,1.1,17-5.4c3.6-7,0.5-16.4-13.7-40.4
			c-14.3-24.3-26.7-40.7-40.5-53.6c-8.9-8.3-29.5-24-35.4-27c-5-2.6-17.5-5.8-27.9-7.1c-7.2-0.9-9.1-0.7-21.6,2.1
			c-16.3,3.5-23.4,6.7-36.8,16.2c-16.8,12-24.3,20.2-31.4,34.3c-5.9,11.9-7.7,19.6-7.6,34c0,11.3,0.4,14.2,2.8,22
			c5.7,18.3,18.8,41.7,42.3,75.6c8.2,11.8,18.1,26.6,22,32.9c13.8,22.3,34.6,48.9,55.2,70.5c6.8,7.1,19.2,20.6,27.6,30
			c18.6,20.8,31.6,33.4,43.2,41.6c12.5,8.9,19,10.7,26.7,7.5c6.9-2.9,37.2-24.7,55.4-39.9c52.3-43.7,82.1-75.5,135.1-144.2
			c27.5-35.6,37.8-52.5,44.6-72.8c8.2-24.6,9.1-53.1,2-69.2c-2.8-6.4-12.3-18.3-20.6-25.8c-7-6.4-22.4-17.1-30.6-21.1
			C654.4,206.6,642.3,205.4,627.8,207z"/>
					<path class="st1" fill-opacity="0.4" d="M627.8,207c-8.3,1-14.8,3.9-27.5,12.3c-19.5,12.9-25.5,19.1-48.6,49.7c-6.5,8.5-13.7,18-16,21c-2.4,3-10.4,14.3-17.7,25
			c-7.4,10.7-18.3,26.7-24.3,35.5c-17.6,25.7-26.3,34.3-33.5,33.1c-8.9-1.4-23.1-16.8-41-44.6c-19.6-30.5-30-44.5-40.1-54.2
			c-11.7-11.3-19.4-15-32.4-15.6c-14.7-0.7-24.7,4.9-34.4,19.5c-4.9,7.4-5.6,9.1-6,14.6c-1.1,13,2.7,23.9,13.9,41
			c17.5,26.5,58.6,83.6,73.2,101.7c12.6,15.7,33.1,38.2,50.3,55.2c20.1,19.9,21.6,20.8,31.4,18.7c11.1-2.3,22.5-9.1,37.9-22.5
			c25.3-22,80.1-79.5,98.5-103.2c14-18.1,42.3-61.4,48-73.7c5.4-11.5,10-29.1,9.1-35.3c-1.9-14-18.2-28.2-32.4-28.2
			c-9.3,0.1-13.1,2.5-28,17.8c-16.3,16.7-26.1,28.7-38.2,46.8c-23.7,35.3-51.1,69.6-82.5,103.4c-10.4,11.2-13,15.5-12,20.1
			c0.8,3.6,6.5,8.6,10.8,9.4c5.9,1.1,9.9-1.6,26-17.7c21.4-21.4,34.3-37.9,73.5-94.3c11.8-16.9,38.8-50.5,43.4-53.8
			c5.4-4,10.2,1.8,8.4,10.4c-0.7,3.5-32.7,51.5-47.2,70.8c-9.2,12.2-14.9,19.1-26.3,31.6c-2,2.2-9.2,10.3-16.1,18
			c-23.9,26.9-59,60.9-71.2,68.9c-2.7,1.7-2.9,1.7-5.5,0.1c-1.4-1-11.2-10.4-21.8-20.9c-20.1-20.1-22.6-23.1-50.3-62.1
			c-9.4-13.2-24.4-33.8-33.5-45.8c-9-12-18.3-25.1-20.6-29.2c-6.7-11.7-6.8-21.8-0.1-26.5c3.6-2.6,10.5-2.6,14.7-0.1
			c6,3.7,14.6,13.7,23.4,27.1c21.1,32.4,31,45.2,54.3,70.3c7.2,7.7,14.1,14.2,16.3,15.3c5.1,2.5,11.8,2.3,17.6-0.5
			c8.1-3.9,27.6-28.3,54.2-67.6c16.9-25,35.3-50.6,46.4-64.5c9.8-12.3,29.4-32,39.6-39.7c11.9-9,15.5-10.5,24.2-10.5
			c6.7,0,8.2,0.4,16.6,4.5c11.5,5.6,16.4,9,23.7,16.1c11.4,11.2,15,23,12.5,40.1c-3.4,22-7.3,32.9-17.5,48.1
			c-7.1,10.5-47.2,64.2-57.8,77.4c-24.4,30.2-62,69.8-84.7,89.2c-24.7,21-55.8,42.8-61.2,42.8c-3.2,0-11.9-7.6-21.8-19
			c-4.8-5.6-18.6-20-30.5-31.9c-24.3-24.1-45-49.2-62.6-75.6c-5.5-8.3-13.3-19.4-17.4-24.9c-15.6-20.6-31.2-45.3-42.7-67.7
			c-10.9-21.2-11.1-35.8-0.7-52.7c6.7-10.8,14.2-17.9,25-23.4c18.5-9.6,31.8-11.9,47.2-8.3c11.3,2.7,26.4,12.6,38.3,25.3
			c12.3,12.9,30.9,39.7,42.3,60.9c4.3,7.8,8.8,14.9,10.1,15.7c5.6,3.7,13.7,1.1,17-5.4c3.6-7,0.5-16.4-13.7-40.4
			c-14.3-24.3-26.7-40.7-40.5-53.6c-8.9-8.3-29.5-24-35.4-27c-5-2.6-17.5-5.8-27.9-7.1c-7.2-0.9-9.1-0.7-21.6,2.1
			c-16.3,3.5-23.4,6.7-36.8,16.2c-16.8,12-24.3,20.2-31.4,34.3c-5.9,11.9-7.7,19.6-7.6,34c0,11.3,0.4,14.2,2.8,22
			c5.7,18.3,18.8,41.7,42.3,75.6c8.2,11.8,18.1,26.6,22,32.9c13.8,22.3,34.6,48.9,55.2,70.5c6.8,7.1,19.2,20.6,27.6,30
			c18.6,20.8,31.6,33.4,43.2,41.6c12.5,8.9,19,10.7,26.7,7.5c6.9-2.9,37.2-24.7,55.4-39.9c52.3-43.7,82.1-75.5,135.1-144.2
			c27.5-35.6,37.8-52.5,44.6-72.8c8.2-24.6,9.1-53.1,2-69.2c-2.8-6.4-12.3-18.3-20.6-25.8c-7-6.4-22.4-17.1-30.6-21.1
			C654.4,206.6,642.3,205.4,627.8,207z"/>
		</g>
	</svg>